<?xml version="1.0" encoding="UTF-8"?>
<svg width="17px" height="17px" viewBox="0 0 17 17" version="1.1" xmlns="http://www.w3.org/2000/svg" xmlns:xlink="http://www.w3.org/1999/xlink">
    <!-- Generator: Sketch 57.1 (83088) - https://sketch.com -->
    <title>cross</title>
    <desc>Created with Sketch.</desc>
    <g id="Pages" stroke="none" stroke-width="1" fill="none" fill-rule="evenodd">
        <g id="Index" transform="translate(-1525.000000, -131.000000)" fill="#D0D0D0">
            <g id="log-in-form" transform="translate(1050.000000, 121.000000)">
                <g id="cross" transform="translate(475.000000, 10.000000)">
                    <g id="Shape">
                        <path d="M16.7750303,2.03221811 C16.898297,2.15393699 16.9677072,2.32015458 16.9677072,2.49362432 C16.9677072,2.66709407 16.898297,2.83331166 16.7750303,2.95503054 L11.7373533,8.03859378 C11.6140866,8.16031266 11.5446765,8.32653026 11.5446765,8.5 C11.5446765,8.67346974 11.6140866,8.83968734 11.7373533,8.96140622 L16.8073231,14.0449695 C16.9305898,14.1666883 17,14.3329059 17,14.5063757 C17,14.6798454 16.9305898,14.846063 16.8073231,14.9677819 L14.9666335,16.8134068 C14.710023,17.0621977 14.3028991,17.0621977 14.0462886,16.8134068 L8.94402602,11.7460332 C8.68741558,11.4972422 8.28029162,11.4972422 8.02368118,11.7460332 L2.95371138,16.7972171 C2.69710093,17.0460081 2.28997698,17.0460081 2.03336654,16.7972171 L0.192676865,14.9839716 C0.0694101729,14.8622527 0,14.6960351 0,14.5225654 C0,14.3490956 0.0694101729,14.182878 0.192676865,14.0611591 L5.27879307,8.96140622 C5.40205976,8.83968734 5.47146994,8.67346974 5.47146994,8.5 C5.47146994,8.32653026 5.40205976,8.16031266 5.27879307,8.03859378 L0.192676865,2.95503054 C0.0694101729,2.83331166 0,2.66709407 0,2.49362432 C0,2.32015458 0.0694101729,2.15393699 0.192676865,2.03221811 L2.04951294,0.186593236 C2.30612338,-0.0621977454 2.71324734,-0.0621977454 2.96985778,0.186593236 L8.02368118,5.27015648 C8.14507458,5.39375367 8.31084772,5.46334994 8.4838536,5.46334994 C8.65685948,5.46334994 8.82263261,5.39375367 8.94402602,5.27015648 L14.0139958,0.202782928 C14.2706063,-0.0460080535 14.6777302,-0.0460080535 14.9343407,0.202782928 L16.7750303,2.03221811 Z" fill-rule="nonzero"></path>
                    </g>
                </g>
            </g>
        </g>
    </g>
</svg>