<?xml version="1.0" encoding="UTF-8"?>
<svg width="12px" height="12px" viewBox="0 0 12 12" version="1.1" xmlns="http://www.w3.org/2000/svg" xmlns:xlink="http://www.w3.org/1999/xlink">
    <!-- Generator: Sketch 57.1 (83088) - https://sketch.com -->
    <title>cross-small</title>
    <desc>Created with Sketch.</desc>
    <g id="Pages" stroke="none" stroke-width="1" fill="none" fill-rule="evenodd">
        <g id="Shop" transform="translate(-134.000000, -385.000000)" fill="#000000">
            <g id="left-column" transform="translate(129.000000, 247.000000)">
                <g id="cross-small" transform="translate(5.000000, 138.000000)">
                    <g id="cross">
                        <path d="M11.12,2 C11.1963431,2.07518295 11.2393312,2.17785173 11.2393312,2.285 C11.2393312,2.39214827 11.1963431,2.49481705 11.12,2.57 L8,5.71 C7.92365686,5.78518295 7.88066884,5.88785173 7.88066884,5.995 C7.88066884,6.10214827 7.92365686,6.20481705 8,6.28 L11.14,9.42 C11.2163431,9.49518295 11.2593312,9.59785173 11.2593312,9.705 C11.2593312,9.81214827 11.2163431,9.91481705 11.14,9.99 L10,11.13 C9.84107267,11.2836725 9.58892733,11.2836725 9.43,11.13 L6.27,8 C6.11107267,7.84632754 5.85892733,7.84632754 5.7,8 L2.56,11.12 C2.40107267,11.2736725 2.14892733,11.2736725 1.99,11.12 L0.85,10 C0.77365686,9.92481705 0.730668844,9.82214827 0.730668844,9.715 C0.730668844,9.60785173 0.77365686,9.50518295 0.85,9.43 L4,6.28 C4.07634314,6.20481705 4.11933116,6.10214827 4.11933116,5.995 C4.11933116,5.88785173 4.07634314,5.78518295 4,5.71 L0.85,2.57 C0.77365686,2.49481705 0.730668844,2.39214827 0.730668844,2.285 C0.730668844,2.17785173 0.77365686,2.07518295 0.85,2 L2,0.86 C2.15892733,0.706327537 2.41107267,0.706327537 2.57,0.86 L5.7,4 C5.77518295,4.07634314 5.87785173,4.11933116 5.985,4.11933116 C6.09214827,4.11933116 6.19481705,4.07634314 6.27,4 L9.41,0.87 C9.56892733,0.716327537 9.82107267,0.716327537 9.98,0.87 L11.12,2 Z" id="Shape" fill-rule="nonzero"></path>
                    </g>
                </g>
            </g>
        </g>
    </g>
</svg>