<?xml version="1.0" encoding="UTF-8"?>
<svg width="11px" height="22px" viewBox="0 0 11 22" version="1.1" xmlns="http://www.w3.org/2000/svg" xmlns:xlink="http://www.w3.org/1999/xlink">
    <!-- Generator: Sketch 57.1 (83088) - https://sketch.com -->
    <title>facebook</title>
    <desc>Created with Sketch.</desc>
    <g id="Pages" stroke="none" stroke-width="1" fill="none" fill-rule="evenodd">
        <g id="Index" transform="translate(-1276.000000, -1671.000000)" fill="#FFFFFF">
            <g id="footer" transform="translate(0.000000, 1563.000000)">
                <g id="facebook" transform="translate(1276.000000, 107.000000)">
                    <g id="Shape">
                        <path d="M3.34,2.12 C4.23092513,1.36971204 5.36558686,0.971335503 6.53,1 L10.14,1 L10.14,4.81 L7.81,4.81 C7.29395398,4.78729818 6.83536148,5.13650164 6.72,5.64 L6.72,8.19 L10.14,8.19 C10.06,9.42 9.9,10.64 9.73,11.86 L6.73,11.86 L6.73,22.73 L2.21,22.73 L2.21,11.86 L0,11.86 L0,8.21 L2.19,8.21 L2.19,4.66 C2.24058904,3.69891762 2.6511528,2.79210723 3.34,2.12 Z" fill-rule="nonzero"></path>
                    </g>
                </g>
            </g>
        </g>
    </g>
</svg>