<?xml version="1.0" encoding="UTF-8"?>
<svg width="370px" height="153px" viewBox="0 0 370 153" version="1.1" xmlns="http://www.w3.org/2000/svg" xmlns:xlink="http://www.w3.org/1999/xlink">
    <!-- Generator: Sketch 57.1 (83088) - https://sketch.com -->
    <title>index-logo</title>
    <desc>Created with Sketch.</desc>
    <g id="Pages" stroke="none" stroke-width="1" fill="none" fill-rule="evenodd">
        <g id="Index" transform="translate(-1095.000000, -133.000000)" fill-rule="nonzero">
            <g id="index-logo" transform="translate(1094.000000, 133.000000)">
                <path d="M120.86,11.43 C128,9 128.59,0 121.51,0 C119.56,0 117.23,1.37 115.63,4.17 L106,20.73 C105.602756,21.4354827 105.144328,22.1047197 104.63,22.73 C102.17,19.34 102.89,14.28 106.34,12.06 L105,10.27 C97.54,15.02 99.73,28.75 112.18,28.75 C122.78,28.74 127.7,16 120.86,11.43 L120.86,11.43 Z M112.07,26 C110.281874,26.0455384 108.513061,25.621437 106.94,24.77 C107.603186,23.9780396 108.198616,23.1317259 108.72,22.24 L114.72,11.87 L115.72,11.97 C124,13.72 120.69,26 112.07,26 Z M115.9,9.79 L118.77,4.86 C121.37,0.38 124.69,3.01 122.91,6.36 C121.54,8.93 119.52,9.72 115.9,9.79 Z" id="Shape" fill="#FFFFFF"></path>
                <path d="M260.21,19 L259.97,19.27 C258.251392,21.4498018 256.017704,23.1680236 253.47,24.27 C254.05,23.35 254.47,22.35 254.94,21.6 L258.87,14.86 C262.19,9.22 256.82,7.33 253.19,10.58 L253.91,9.35 L250.35,9.35 L244.79,19 L244.55,19.27 C243.190213,20.8379584 241.252378,21.787028 239.18,21.9 L242.53,16.12 C244.69,12.39 242.7,8.87 239.35,8.87 C236.61,8.87 234.49,9.96 232.44,13.52 L230.69,16.52 L229.23,19 L229.04,19.22 C226.47,22.22 223.98,24.56 222.4,24.56 C221.61,24.56 221.17,24.01 221.99,22.56 L227.12,13.56 C228.66,10.86 227.19,8.91 225.2,8.91 C223.66,8.91 222.02,9.76 220.2,11.61 L225.88,1.72 L222.32,1.72 L212.45,19 L212.25,19.23 C211.007519,20.6991983 209.578814,22.0001595 208,23.1 C209.13,19.71 208.89,14.51 211.08,9.96 L208.41,8.52 C206.94,10.52 203.72,15.19 200.51,18.95 L200.27,19.22 C197.7,22.22 195.21,24.56 193.63,24.56 C192.84,24.56 192.4,24.01 193.22,22.56 L196.78,16.33 C198.01,14.17 197.43,12.91 196.27,11.51 L194.27,9.12 C194.010102,8.84603392 193.872858,8.47811558 193.889834,8.10086754 C193.90681,7.7236195 194.076546,7.36951523 194.36,7.12 L194.47,7.03 L192.62,5.03 C190.62,6.84 190.43,8.86 191.7,10.5 L192,10.91 C190.43,13.13 188.31,16.14 186,18.91 L185.76,19.18 C183.19,22.18 179.91,24.52 177.41,24.52 C175.22,24.52 173.92,23.15 175.56,20.28 L175.9,19.66 C178.19,20.66 182.5,20.17 185.17,15.56 L185.68,14.67 C187.6,11.39 185.75,8.92 182.84,8.92 C180.022892,8.93443731 177.449463,10.5201629 176.17,13.03 L172.7,19 L172.49,19.24 C171.135276,20.814525 169.194462,21.7650542 167.12,21.87 L170.47,16.09 C171.253728,14.8611514 171.714628,13.4543736 171.81,12 C171.859256,11.2056307 171.590835,10.4242445 171.063819,9.82783561 C170.536804,9.23142675 169.794392,8.86888104 169,8.82 L168.59,8.82 C167.751224,8.8411419 166.938669,9.11664341 166.26,9.61 L170.78,1.78 L167.15,1.78 L157.18,19 L156.99,19.21 C154.42,22.21 151.93,24.55 150.35,24.55 C149.56,24.55 149.12,24 149.94,22.55 L153.5,16.32 C154.73,14.16 154.15,12.9 152.99,11.5 L150.99,9.11 C150.731323,8.83471787 150.595825,8.46601168 150.614689,8.08873445 C150.633553,7.71145721 150.805154,7.35810598 151.09,7.11 L151.2,7.02 L149.35,5.02 C147.35,6.83 147.16,8.85 148.43,10.49 L148.74,10.9 C147.17,13.12 145.04,16.13 142.74,18.9 L142.5,19.17 C139.93,22.17 137.44,24.51 135.86,24.51 C135.07,24.51 134.63,23.96 135.45,22.51 L141.2,12.45 L139.2,12.45 C139.067022,10.4814189 137.41273,8.96351808 135.44,9 C133.52,9 130.86,10.51 129.35,13.11 L124.35,21.73 C122.84,24.37 123.91,26.79 126.78,26.79 C128.22,26.79 130,25.87 131.71,24.46 C131.88,25.83 132.98,26.79 134.79,26.79 C137.73,26.79 141.12,23.64 144.06,20.22 C145.77,18.22 147.06,16.46 149.94,12.59 L150.42,13.17 C150.904299,13.7258751 150.988276,14.5256544 150.63,15.17 L146.87,21.7 C145.37,24.34 146.43,26.76 149.3,26.76 C151.36,26.76 153.64,25.21 155.84,23.11 C155.84,25.54 157.65,26.91 159.95,26.91 C162.348818,26.7833361 164.558441,25.568044 165.95,23.61 C166.213047,23.6273549 166.476953,23.6273549 166.74,23.61 C168.402444,23.5262839 170.020772,23.0462712 171.46,22.21 C171.27,24.78 173.14,26.73 176.28,26.73 C180.28,26.73 184.28,23.58 187.28,20.16 C188.99,18.16 190.28,16.4 193.16,12.53 L193.64,13.11 C194.124299,13.6658751 194.208276,14.4656544 193.85,15.11 L190.09,21.64 C188.58,24.28 189.65,26.7 192.52,26.7 C195.39,26.7 198.85,23.55 201.79,20.13 C203.79,17.8 205.59,15.31 206.85,13.63 C205.45,17.33 206.2,23.96 202.85,23.96 C202.087135,23.8844486 201.434577,23.3794929 201.17,22.66 L199,23.82 C199.470299,25.5700112 201.089305,26.7614334 202.9,26.69 C203.234323,26.6840436 203.568108,26.6606787 203.9,26.62 L204,26.62 C205.986436,26.2841488 207.862713,25.47464 209.47,24.26 L208.25,26.38 L211.84,26.38 L217.24,16.97 C222.72,10.09 225.14,10.97 223.6,13.62 L218.98,21.62 C217.47,24.25 218.54,26.68 221.41,26.68 C223.48,26.68 225.76,25.12 227.96,23.01 C227.96,27.55 234.25,28.43 238.11,23.56 L238.9,23.56 C240.220387,23.5067471 241.516365,23.1870044 242.71,22.62 L236.23,33.86 L239.82,33.86 L250.46,15.35 C254.46,9.94 256.93,11.93 256,13.54 L250.63,22.85 C250.431166,23.3878385 249.918415,23.7449474 249.345,23.7449474 C248.771585,23.7449474 248.258834,23.3878385 248.06,22.85 L246.06,23.85 C246.530299,25.6000112 248.149305,26.7914334 249.96,26.72 L250.17,26.72 C255.34,26.62 258.72,23.54 261.63,20.15 C261.340637,19.5830693 260.824689,19.165224 260.21,19 L260.21,19 Z M179.21,14 C181.26,10.48 184.89,11.06 182.77,14.75 L182.26,15.64 C180.55,18.55 178.26,18.48 176.92,18 L179.21,14 Z M133.6,19.61 C131.44,23 129.32,24.61 127.85,24.61 C127.06,24.61 126.62,24.06 127.44,22.61 L132.44,13.95 C134.36,10.63 138.15,11.49 136.44,14.7 L133.6,19.61 Z M160.39,24.47 C160.011558,24.5016226 159.637647,24.3699609 159.362511,24.1081997 C159.087376,23.8464386 158.93726,23.4795475 158.95,23.1 C159.000793,22.4416101 159.213796,21.8060362 159.57,21.25 L160.82,19 C161.005326,20.4985778 161.829305,21.8439243 163.08,22.69 C162.536281,23.6931035 161.518124,24.3492495 160.38,24.43 L160.39,24.47 Z M164.1,21 C163.100004,20.2384869 162.536001,19.0357779 162.59,17.78 C162.59,15.25 165.05,11.11 167.07,11.11 C167.460676,11.1123075 167.831492,11.2825145 168.087944,11.5772434 C168.344397,11.8719723 168.461715,12.2627552 168.41,12.65 C168.371989,13.4038569 168.137574,14.1346821 167.73,14.77 L164.1,21 Z M237.18,19.22 L237,19.22 C236.443043,19.2226459 235.90995,19.4464368 235.517998,19.8421399 C235.126045,20.237843 234.907342,20.7730435 234.91,21.33 C234.912682,21.7533936 235.030189,22.1681264 235.25,22.53 L235.25,22.6 C233.57,25.47 229.5,24.93 231.62,21.23 L234.32,16.54 L236,13.62 C238.5,9.38 241.92,11.05 239.76,14.75 L237.18,19.22 Z M0.996,73.257 L6.71,67.544 L12.422,73.259 L6.708,78.971 L0.996,73.257 Z M353.019,73.283 L358.733,67.57 L364.446,73.285 L358.731,78.997 L353.019,73.283 Z" id="Shape" fill="#FFFFFF"></path>
                <path d="M47.8,73.48 L49.88,73.48 L49.88,65.16 L53.15,65.16 L53.15,63.07 L47.8,63.07 L47.8,73.48 L47.8,73.48 Z M62.6900431,75 L62.6900431,62.32 C62.6793434,60.5871097 61.6873664,59.0100212 60.13,58.25 C60.4436357,58.8701646 60.6080062,59.5550414 60.61,60.25 L60.61,72.93 C60.6202298,74.2917811 60.0091184,75.5839505 58.95,76.44 C59.9788066,77.3954527 60.5775229,78.726334 60.61,80.13 L60.61,94.23 C60.5718894,96.7519341 58.5221997,98.7793928 56,98.79 L42.49,98.79 L42.49,100.87 L58.13,100.87 C60.6326954,100.83244 62.6524398,98.8126954 62.6900431,96.31 L62.6900431,82.21 C62.6508887,80.8015945 62.0408492,79.469615 61,78.52 C62.073115,77.6677485 62.6960114,76.3703548 62.6900431,75 L62.6900431,75 Z" id="Shape" fill="#636466"></path>
                <path d="M47.8,91.34 L49.88,91.34 L49.88,82.95 L53.15,82.95 L53.15,80.87 L47.8,80.87 L47.8,91.34 Z M80.81,91.34 L82.89,91.34 L82.89,65.16 L86.16,65.16 L86.16,63.07 L80.81,63.07 L80.81,91.34 L80.81,91.34 Z" id="Shape" fill="#636466"></path>
                <path d="M93.14,58.25 C93.4536357,58.8701646 93.6180062,59.5550414 93.62,60.25 L93.62,94.25 C93.5824398,96.7526954 91.5626954,98.7724398 89.06,98.81 L78,98.81 C77.3052173,98.8065435 76.6206716,98.6422526 76,98.33 C76.7600212,99.8873664 78.3371097,100.879343 80.07,100.89 L91.15,100.89 C93.6526954,100.85244 95.6724398,98.8326954 95.71,96.33 L95.71,62.33 C95.6989061,60.5919351 94.7028334,59.0106212 93.14,58.25 L93.14,58.25 Z M113.82,73.48 L115.9,73.48 L115.9,65.16 L119.18,65.16 L119.18,63.07 L113.82,63.07 L113.82,73.48 L113.82,73.48 Z M126.07,82.52 C127.650862,81.787151 128.661782,80.2024666 128.66,78.46 L128.66,62.32 C128.658903,60.5740221 127.660946,58.9819507 126.09,58.22 C126.400559,58.8412903 126.564753,59.5254348 126.57,60.22 L126.57,76.37 C126.581802,78.1121814 125.578073,79.7017444 124,80.44 L127.08,98.79 L121.4,98.79 L121.75,100.87 L129.14,100.87 L126.07,82.52 Z M116.65,80.87 L113.82,80.87 L113.82,98.79 L108.51,98.79 L108.51,100.88 L115.9,100.88 L115.9,82.95 L117,82.95 L116.65,80.87 Z M145.84,91.34 L147.93,91.34 L147.93,65.16 L151.2,65.16 L151.2,63.07 L145.84,63.07 L145.84,91.34 L145.84,91.34 Z" id="Shape" fill="#636466"></path>
                <path d="M158.18,58.25 C158.493986,58.8700361 158.658376,59.5549971 158.66,60.25 L158.66,94.25 C158.62244,96.7526954 156.602695,98.7724398 154.1,98.81 L143,98.81 C142.305174,98.8069066 141.620546,98.642596 141,98.33 C141.760021,99.8873664 143.33711,100.879343 145.07,100.89 L156.16,100.89 C158.662695,100.85244 160.68244,98.8326954 160.72,96.33 L160.72,62.33 C160.714545,60.598658 159.731168,59.0190596 158.18,58.25 L158.18,58.25 Z M178.85,91.34 L180.94,91.34 L180.94,65.16 L184.21,65.16 L184.21,63.07 L178.85,63.07 L178.85,91.34 L178.85,91.34 Z" id="Shape" fill="#636466"></path>
                <path d="M191.19,58.25 C191.503636,58.8701646 191.668006,59.5550414 191.67,60.25 L191.67,94.25 C191.63244,96.7526954 189.612695,98.7724398 187.11,98.81 L173.55,98.81 L173.55,100.89 L189.19,100.89 C191.692695,100.85244 193.71244,98.8326954 193.75,96.33 L193.75,62.33 C193.74078,60.5941818 192.748944,59.0134424 191.19,58.25 L191.19,58.25 Z M212.24,57.77 L212.24,98.79 L206.93,98.79 L206.93,100.88 L214.32,100.88 L214.32,57.77 L212.24,57.77 L212.24,57.77 Z M245.12,57.77 L245.12,98.79 L239.22,98.79 L239.81,100.88 L247.21,100.88 L247.21,57.77 L245.12,57.77 Z M232.31,79.95 L232.31,98.79 L227.01,98.79 L227.01,100.88 L234.4,100.88 L234.4,87.19 L232.31,79.95 L232.31,79.95 Z M264.58,83 L270.69,83 L270.69,80.87 L262.5,80.87 C261.805261,80.8661822 261.120797,80.7019107 260.5,80.39 C261.241697,81.9750437 262.830029,82.9911094 264.58,83 L264.58,83 Z M267.41,85.73 L265.32,86.21 L265.32,91.34 L267.41,91.34 L267.41,85.73 Z M277.66,58.25 C277.973636,58.8701646 278.138006,59.5550414 278.14,60.25 L278.14,69 L272.77,70.24 L272.77,72.8 L280.22,71.07 L280.22,62.32 C280.209343,60.5871097 279.217366,59.0100212 277.66,58.25 L277.66,58.25 Z" id="Shape" fill="#636466"></path>
                <path d="M277.66,76.05 C277.973636,76.6701646 278.138006,77.3550414 278.14,78.05 L278.14,94.25 C278.10244,96.7526954 276.082695,98.7724398 273.58,98.81 L262.49,98.81 C261.795217,98.8065435 261.110672,98.6422526 260.49,98.33 C261.250021,99.8873664 262.82711,100.879343 264.56,100.89 L275.64,100.89 C278.142695,100.85244 280.16244,98.8326954 280.2,96.33 L280.2,80.12 C280.193103,78.3915918 279.209589,76.8156469 277.66,76.05 Z M265.32,63.07 L265.32,73.48 L267.41,73.48 L267.41,65.16 L270.68,65.16 L270.68,63.07 L265.32,63.07 L265.32,63.07 Z M299.01,80.87 L298.33,80.87 L298.33,98.79 L293.03,98.79 L293.03,100.88 L300.42,100.88 L300.42,85.35 L299.01,80.87 L299.01,80.87 Z M314.15,57.77 L311.4,57.77 L305.17,77.18 L312.07,98.79 L306.06,98.79 L306.64,100.63 L306.7,100.88 L314.15,100.88 L307.25,79.26 L314.15,57.77 L314.15,57.77 Z M331.53,57.77 L331.53,98.79 L326.23,98.79 L326.23,100.88 L333.61,100.88 L333.61,57.77 L331.53,57.77 L331.53,57.77 Z" id="Shape" fill="#636466"></path>
                <path d="M168.9,123.85 L170.31,123.85 C175.74,124.13 180,125.58 182.7,128.57 C185.44,125.57 189.7,124.11 195.16,123.85 L196.51,123.85 C208.62,124.67 214.14,133.35 223.81,137.04 C225.312611,137.724857 226.948889,138.06646 228.6,138.04 C231.08,137.77 232.66,135.26 232.34,132.46 C232,129.46 229.06,126.85 225.78,128.29 C225.348616,128.490434 224.953296,128.760738 224.61,129.09 C224.36,129.32 224.08,129.92 223.44,129.7 C222.84,129.2 223.44,128.47 223.75,128.05 C224.961918,125.894823 227.371804,124.703775 229.82,125.05 C235.45,125.45 240.49,130.39 239.63,137.87 C237.71,149 227.53,152 215.46,153 L211.53,153 C200.996229,152.572787 190.891809,148.709436 182.76,142 C174.563939,148.685506 164.427086,152.543824 153.86,153 L150,153 C137.84,151.93 127.56,149 125.77,137.54 C125.09,129.38 129.95,125.37 135.59,124.96 C138.056839,124.614976 140.486165,125.801944 141.73,127.96 C142.01,128.42 142.53,129.13 142.04,129.68 C141.43,129.79 141.13,129.31 140.87,129.07 C140.13157,128.300442 139.116389,127.85765 138.05,127.84 C134.19,127.7 131.97,131.99 133.51,135.45 C134.122201,136.816065 135.396582,137.769014 136.88,137.97 C138.529334,137.978312 140.161758,137.637514 141.67,136.97 C143.014736,136.454848 144.310031,135.818915 145.54,135.07 C152.89,130.81 158.64,124.76 168.9,123.85 L168.9,123.85 Z" id="Shape" fill="#FFFFFF"></path>
                <path d="M362.634,82.906 L368.347,77.192 L370.433,79.277 L364.72,84.992 L362.634,82.906 Z M10.667,82.95 L16.38,77.236 L18.466,79.322 L12.753,85.035 L10.667,82.95 Z" id="Shape" fill="#636466"></path>
                <path d="M56.65,69 C56.6535551,70.3496078 56.04715,71.6285713 55,72.48 C56.0288066,73.4354527 56.6275229,74.766334 56.66,76.17 L56.66,90.27 C56.6224398,92.7726954 54.6026954,94.7924398 52.1,94.83 L36.45,94.83 L36.45,51.72 L52.09,51.72 C54.6016095,51.7363628 56.6336372,53.7683905 56.65,56.28 L56.65,69 Z M49.2,59.11 L43.84,59.11 L43.84,69.52 L49.2,69.52 L49.2,59.11 Z M49.2,76.91 L43.84,76.91 L43.84,87.38 L49.2,87.38 L49.2,76.91 Z M85.1,51.719989 C87.6116095,51.7363628 89.6436372,53.7683905 89.66,56.28 L89.66,90.28 C89.6224398,92.7826954 87.6026954,94.8024398 85.1,94.84 L74,94.84 C71.4883905,94.8236372 69.4563628,92.7916095 69.439989,90.28 L69.439989,56.28 C69.4373373,55.0697985 69.9169094,53.9083969 70.7726531,53.0526531 C71.6283969,52.1969094 72.7897985,51.7173373 74,51.719989 L85.1,51.719989 Z M82.2,59.11 L76.85,59.11 L76.85,87.38 L82.21,87.38 L82.2,59.11 Z M115.71,94.83 L112.71,76.91 L109.88,76.91 L109.88,94.83 L102.49,94.83 L102.49,51.72 L118.13,51.72 C119.331439,51.7279302 120.480517,52.2128189 121.324436,53.0679906 C122.168356,53.9231622 122.637983,55.0785614 122.63,56.28 L122.63,72.42 C122.624614,74.171761 121.596478,75.7589221 120,76.48 L123.08,94.83 L115.71,94.83 Z M115.22,59.11 L109.86,59.11 L109.86,69.52 L115.22,69.52 L115.22,59.11 Z M150.14,51.72 C152.65161,51.7363628 154.683637,53.7683905 154.7,56.28 L154.7,90.28 C154.66244,92.7826954 152.642695,94.8024398 150.14,94.84 L139.06,94.84 C136.54839,94.8236372 134.516363,92.7916095 134.499988,90.28 L134.499988,56.28 C134.49436,53.7826064 136.502751,51.7474376 139,51.72 L150.1,51.72 L150.14,51.72 Z M147.24,59.11 L141.88,59.11 L141.88,87.38 L147.24,87.38 L147.24,59.11 Z M183.15,51.72 C185.66161,51.7363628 187.693637,53.7683905 187.71,56.28 L187.71,90.28 C187.67244,92.7826954 185.652695,94.8024398 183.15,94.84 L167.51,94.84 L167.51,51.72 L183.15,51.72 Z M180.26,59.11 L174.9,59.11 L174.9,87.38 L180.26,87.38 L180.26,59.11 Z M200.89,51.72 L208.28,51.72 L208.28,94.83 L200.89,94.83 L200.89,51.72 Z M241.17,51.72 L241.17,94.83 L233.78,94.83 L228.36,76 L228.36,94.83 L221,94.83 L221,51.72 L228.33,51.72 L233.75,69.39 L233.75,51.72 L241.17,51.72 Z M269.62,69.52 C272.13161,69.5363628 274.163637,71.5683905 274.18,74.08 L274.18,90.28 C274.14244,92.7826954 272.122695,94.8024398 269.62,94.84 L258.54,94.84 C256.036204,94.8127764 254.016218,92.7838912 253.999989,90.28 L253.999989,81.41 L261.39,79.69 L261.39,87.39 L266.75,87.39 L266.75,76.91 L258.56,76.91 C257.353264,76.9126551 256.194899,76.4358259 255.339732,75.5844101 C254.484565,74.7329944 254.002649,73.5767359 253.999989,72.37 L253.999989,56.28 C253.997345,55.0732641 254.474174,53.9148985 255.32559,53.059732 C256.177006,52.2045655 257.333264,51.7226493 258.54,51.72 L269.64,51.72 C272.15161,51.7363628 274.183637,53.7683905 274.2,56.28 L274.2,65 L266.75,66.73 L266.75,59.11 L261.39,59.11 L261.39,69.52 L269.62,69.52 Z M301.22,73.22 L308.12,94.84 L300.67,94.84 L300.61,94.59 L295.07,76.92 L294.39,76.92 L294.39,94.83 L287,94.83 L287,51.72 L294.39,51.72 L294.39,69.52 L295,69.52 L300.67,51.72 L308.18,51.72 L301.22,73.22 Z M320.19,51.72 L327.58,51.72 L327.58,94.83 L320.19,94.83 L320.19,51.72 Z" id="Shape" fill="#FFFFFF"></path>
            </g>
        </g>
    </g>
</svg>