<?xml version="1.0" encoding="UTF-8"?>
<svg width="13px" height="15px" viewBox="0 0 13 15" version="1.1" xmlns="http://www.w3.org/2000/svg" xmlns:xlink="http://www.w3.org/1999/xlink">
    <!-- Generator: Sketch 57.1 (83088) - https://sketch.com -->
    <title>lock</title>
    <desc>Created with Sketch.</desc>
    <g id="Pages" stroke="none" stroke-width="1" fill="none" fill-rule="evenodd">
        <g id="Index" transform="translate(-1400.000000, -324.000000)" fill="#000000" fill-rule="nonzero">
            <g id="log-in-form" transform="translate(1050.000000, 121.000000)">
                <g id="lock" transform="translate(350.000000, 203.000000)">
                    <path d="M10.25,6.56 L10.25,3.75 C10.25,1.67893219 8.57106781,0 6.5,0 C4.42893219,0 2.75,1.67893219 2.75,3.75 L2.75,6.56 C1.71170467,6.56 0.87,7.40170467 0.87,8.44 L0.87,13.13 C0.87,13.6276923 1.0683823,14.1048559 1.42124111,14.4558378 C1.77409993,14.8068197 2.2523148,15.0026615 2.75,15.0000268 L10.25,15.0000268 C11.2882953,15.0000268 12.13,14.1582953 12.13,13.12 L12.13,8.44 C12.1244979,7.40561204 11.2844026,6.56998537 10.25,6.57 L10.25,6.56 Z M7,11.11 L7,12.66 C6.99999999,12.9195738 6.78957382,13.13 6.53,13.13 C6.27042618,13.13 6.06000001,12.9195738 6.06,12.66 L6.06,11.11 C5.7735749,10.9494143 5.59445487,10.6483402 5.59,10.32 C5.553017,9.96286852 5.72270162,9.61586335 6.027283,9.42575596 C6.33186439,9.23564857 6.71813561,9.23564857 7.022717,9.42575596 C7.32729838,9.61586335 7.496983,9.96286852 7.46,10.32 C7.45554513,10.6483402 7.2764251,10.9494143 6.99,11.11 L7,11.11 Z M8.37,6.56 L4.63,6.56 L4.63,3.75 C4.63,2.71446609 5.46946609,1.875 6.505,1.875 C7.54053391,1.875 8.38,2.71446609 8.38,3.75 L8.38,6.56 L8.37,6.56 Z" id="Shape"></path>
                </g>
            </g>
        </g>
    </g>
</svg>