<?xml version="1.0" encoding="UTF-8"?>
<svg width="14px" height="14px" viewBox="0 0 14 14" version="1.1" xmlns="http://www.w3.org/2000/svg" xmlns:xlink="http://www.w3.org/1999/xlink">
    <!-- Generator: Sketch 57.1 (83088) - https://sketch.com -->
    <title>login</title>
    <desc>Created with Sketch.</desc>
    <g id="Pages" stroke="none" stroke-width="1" fill="none" fill-rule="evenodd" opacity="0.3">
        <g id="Index" transform="translate(-1665.000000, -30.000000)" fill="#FFFFFF">
            <g id="top-menu">
                <g id="login" transform="translate(1665.000000, 30.000000)">
                    <g id="Shape">
                        <path d="M6.31,8.06 L6.23,8.13 L4.8,9.59 C4.70676541,9.68372418 4.62911839,9.79175481 4.57,9.91 C4.3471176,10.3491394 4.42307388,10.8808333 4.76,11.24 C5.00170934,11.5046313 5.35297821,11.6414412 5.71,11.61 C6.01092841,11.592107 6.29359715,11.4597178 6.5,11.24 L8.35,9.38 L10.07,7.66 C10.1459899,7.5796069 10.2099825,7.48867 10.26,7.39 C10.3554232,7.20519255 10.3970032,6.99729274 10.38,6.79 C10.3728672,6.57936794 10.2993694,6.37637397 10.17,6.21 C10.03,6.04 9.88,5.89 9.73,5.73 L6.34,2.34 C6.07447329,2.08529581 5.69918376,1.98021474 5.34,2.06 C5.06363076,2.10439254 4.8139015,2.25066254 4.64,2.47 C4.47975154,2.65816071 4.38499257,2.89330334 4.37,3.14 C4.33375036,3.51636246 4.47851507,3.88755402 4.76,4.14 L6.26,5.64 L6.34,5.72 L1.1,5.72 C0.817831129,5.77030652 0.562681546,5.91914378 0.38,6.14 C0.147110975,6.41700226 0.0581982493,6.78747195 0.14,7.14 C0.196837489,7.38453597 0.334185938,7.60288478 0.53,7.76 C0.744168993,7.95149952 1.0227463,8.05507313 1.31,8.05 L6.31,8.05 L6.31,8.06 Z M11.51,7 L11.51,10.93 C11.5136785,11.1299611 11.4158087,11.3181722 11.25,11.43 C11.1288685,11.5101366 10.9849769,11.5487417 10.84,11.54 L9.57,11.54 C9.30864229,11.6008788 9.07584174,11.7490246 8.91,11.96 C8.71101548,12.2072294 8.62099916,12.5246859 8.66059485,12.8395659 C8.70019053,13.1544459 8.86600091,13.4397326 9.12,13.63 C9.31594276,13.7862696 9.55937504,13.8709417 9.81,13.87 L10.81,13.87 C11.0231814,13.8813859 11.2368186,13.8813859 11.45,13.87 C11.7049826,13.8311353 11.9516995,13.7500229 12.18,13.63 C12.4033976,13.516445 12.6116866,13.375346 12.8,13.21 C13.0860854,12.967994 13.3265437,12.6767346 13.51,12.35 C13.7469073,11.9146675 13.867461,11.4255641 13.86,10.93 L13.86,2.73 C13.8305816,2.41634182 13.742379,2.1110251 13.6,1.83 C13.392626,1.41055344 13.0915259,1.04444313 12.72,0.76 C12.2130064,0.35952651 11.5860806,0.141159117 10.94,0.14 L9.62,0.14 C9.368159,0.187462715 9.13938748,0.317686504 8.97,0.51 C8.781087,0.707377389 8.67083594,0.967000845 8.66,1.24 C8.64615859,1.47690264 8.70930009,1.71192936 8.84,1.91 C9.04691476,2.26440411 9.42970851,2.47876861 9.84,2.47 L11.02,2.47 C11.3131969,2.50208095 11.5432067,2.73627273 11.57,3.03 L11.57,6.97 L11.51,7 Z" fill-rule="nonzero"></path>
                        <path d="M6.31,8.06 L1.31,8.06 C1.0227463,8.06507313 0.744168993,7.96149952 0.53,7.77 C0.334185938,7.61288478 0.196837489,7.39453597 0.14,7.15 C0.0581982493,6.79747195 0.147110975,6.42700226 0.38,6.15 C0.557766138,5.9179558 0.813523419,5.7581075 1.1,5.7 L6.34,5.7 L6.26,5.62 L4.76,4.12 C4.47851507,3.86755402 4.33375036,3.49636246 4.37,3.12 C4.38499257,2.87330334 4.47975154,2.63816071 4.64,2.45 C4.8139015,2.23066254 5.06363076,2.08439254 5.34,2.04 C5.69918376,1.96021474 6.07447329,2.06529581 6.34,2.32 L9.73,5.7 C9.88,5.85 10.03,6.01 10.17,6.18 C10.2993694,6.34637397 10.3728672,6.54936794 10.38,6.76 C10.3970032,6.96729274 10.3554232,7.17519255 10.26,7.36 C10.2099825,7.45867 10.1459899,7.5496069 10.07,7.63 L8.35,9.38 L6.51,11.24 C6.30359715,11.4597178 6.02092841,11.592107 5.72,11.61 C5.36297821,11.6414412 5.01170934,11.5046313 4.77,11.24 C4.43307388,10.8808333 4.3571176,10.3491394 4.58,9.91 C4.63911839,9.79175481 4.71676541,9.68372418 4.81,9.59 L6.24,8.15 L6.32,8.08 L6.31,8.06 Z" fill-rule="nonzero"></path>
                        <path d="M11.51,7 L11.51,3.06 C11.491408,2.77528377 11.2809047,2.54001537 11,2.49 L9.82,2.49 C9.40970851,2.49876861 9.02691476,2.28440411 8.82,1.93 C8.68930009,1.73192936 8.62615859,1.49690264 8.64,1.26 C8.65925683,0.973051847 8.78815818,0.704507359 9,0.51 C9.16938748,0.317686504 9.398159,0.187462715 9.65,0.14 L10.97,0.14 C11.6160806,0.141159117 12.2430064,0.35952651 12.75,0.76 C13.1070946,1.03919694 13.3974682,1.39447767 13.6,1.8 C13.742379,2.0810251 13.8305816,2.38634182 13.86,2.7 L13.86,10.9 C13.867461,11.3955641 13.7469073,11.8846675 13.51,12.32 C13.3265437,12.6467346 13.0860854,12.937994 12.8,13.18 C12.6116866,13.345346 12.4033976,13.486445 12.18,13.6 C11.9516995,13.7200229 11.7049826,13.8011353 11.45,13.84 C11.2368217,13.8515011 11.0231783,13.8515011 10.81,13.84 L9.81,13.84 C9.55937504,13.8409417 9.31594276,13.7562696 9.12,13.6 C8.63455779,13.2079863 8.5421605,12.5040069 8.91,12 C9.07584174,11.7890246 9.30864229,11.6408788 9.57,11.58 L10.84,11.58 C10.9849769,11.5887417 11.1288685,11.5501366 11.25,11.47 C11.4158087,11.3581722 11.5136785,11.1699611 11.51,10.97 L11.51,7.04 L11.51,7 Z" fill-rule="nonzero"></path>
                    </g>
                </g>
            </g>
        </g>
    </g>
</svg>