<?xml version="1.0" encoding="UTF-8"?>
<svg width="111px" height="24px" viewBox="0 0 111 24" version="1.1" xmlns="http://www.w3.org/2000/svg" xmlns:xlink="http://www.w3.org/1999/xlink">
    <!-- Generator: Sketch 57.1 (83088) - https://sketch.com -->
    <title>logo-small</title>
    <desc>Created with Sketch.</desc>
    <g id="Pages" stroke="none" stroke-width="1" fill="none" fill-rule="evenodd">
        <g id="Item" transform="translate(-150.000000, -23.000000)" fill="#FFFFFF">
            <g id="top-menu">
                <g id="logo-small" transform="translate(150.000000, 23.000000)">
                    <g id="Shape">
                        <path d="M13.93,8.17 C18.93,6.5 19.27,0.29 14.38,0.29 C12.6153883,0.471938243 11.0749234,1.56468178 10.32,3.17 L3.72,14.59 C3.44592856,15.087337 3.12799968,15.5592104 2.77,16 C1.94098516,14.8627944 1.60424632,13.4399229 1.83560554,12.0517676 C2.06696476,10.6636123 2.84697332,9.42686539 4,8.62 L3,7.37 C-2.14,10.65 -0.63,20.12 8,20.12 C15.26,20.12 18.66,11.31 13.93,8.17 Z M7.87,18.23 C6.63598218,18.261015 5.41539935,17.9679372 4.33,17.38 C4.78840699,16.8322356 5.1998614,16.246833 5.56,15.63 L9.69,8.48 L10.35,8.55 C16.11,9.76 13.82,18.23 7.87,18.23 L7.87,18.23 Z M10.51,7 L12.51,3.6 C14.3,0.51 16.59,2.33 15.36,4.6 C14.41,6.45 13,7 10.51,7 Z" fill-rule="nonzero"></path>
                        <path d="M110.08,13.37 L109.91,13.56 C108.72158,15.0610837 107.178648,16.2431966 105.42,17 C105.82,16.36 106.13,15.68 106.42,15.16 L109.13,10.51 C111.42,6.62 107.71,5.32 105.21,7.56 L105.71,6.71 L103.25,6.71 L99.41,13.37 L99.24,13.56 C98.3012345,14.6445743 96.9622736,15.301423 95.53,15.38 L97.85,11.38 C99.34,8.81 97.97,6.38 95.65,6.38 C93.76,6.38 92.3,7.14 90.88,9.59 L89.68,11.69 L88.68,13.41 L88.55,13.56 C86.78,15.61 85.06,17.24 83.97,17.24 C83.43,17.24 83.12,16.86 83.69,15.9 L87.23,9.69 C88.29,7.82 87.23,6.48 85.91,6.48 C84.5639694,6.61501472 83.330089,7.28968032 82.49,8.35 L86.41,1.53 L84,1.53 L77.13,13.4 L76.99,13.56 C76.1142582,14.5739145 75.1089716,15.4682498 74,16.22 C74.78,13.88 74.62,10.3 76.13,7.15 L74.28,6.15 C73.28,7.54 71.05,10.75 68.83,13.35 L68.66,13.54 C66.89,15.59 65.17,17.22 64.08,17.22 C63.54,17.22 63.23,16.84 63.8,15.88 L66.26,11.58 C67.0089122,10.5429793 66.8581569,9.10865009 65.91,8.25 L64.57,6.62 C64.3979294,6.41409636 64.3158299,6.14767733 64.342158,5.88063529 C64.3684861,5.61359326 64.5010324,5.3683365 64.71,5.2 L63.44,3.81 C62,5.06 61.92,6.45 62.8,7.59 L63.01,7.87 C61.92,9.4 60.46,11.48 58.86,13.37 L58.69,13.56 C56.92,15.61 54.69,17.24 52.93,17.24 C51.42,17.24 50.52,16.3 51.65,14.31 L51.89,13.89 C53.47,14.55 56.45,14.24 58.29,11.06 L58.64,10.45 C59.96,8.18 58.64,6.45 56.64,6.45 C54.6979502,6.45838789 52.9230802,7.55031882 52.04,9.28 L49.7,13.39 L49.55,13.56 C48.6148626,14.6492712 47.2737674,15.3071669 45.84,15.38 L48.15,11.38 C48.6862712,10.5347437 49.0025408,9.56874634 49.07,8.57 C49.0994097,7.97446366 48.8742704,7.39450156 48.450746,6.97479268 C48.0272216,6.55508381 47.4452458,6.33520215 46.85,6.37 C46.2744721,6.3848567 45.7168256,6.57306239 45.25,6.91 L48.37,1.5 L45.87,1.5 L39,13.41 L38.87,13.56 C37.1,15.61 35.38,17.24 34.29,17.24 C33.75,17.24 33.44,16.86 34.01,15.9 L36.46,11.6 C37.2089122,10.5629793 37.0581569,9.12865009 36.11,8.27 L34.73,6.62 C34.5579294,6.41409636 34.4758299,6.14767733 34.502158,5.88063529 C34.5284861,5.61359326 34.6610324,5.3683365 34.87,5.2 L33.6,3.81 C32.21,5.06 32.09,6.45 33,7.59 L33.21,7.87 C32.12,9.4 30.66,11.48 29.06,13.37 L28.89,13.56 C27.12,15.61 25.4,17.24 24.31,17.24 C23.77,17.24 23.46,16.86 24.03,15.9 L28,9 L26.57,9 C26.5535202,7.59557478 25.4044779,6.46888746 24,6.48 C22.2200966,6.67606745 20.6500693,7.73396678 19.8,9.31 L16.36,15.26 C15.36,17.08 16.05,18.75 18.04,18.75 C19.3154141,18.5944683 20.5072158,18.0336204 21.44,17.15 C21.5945877,18.1751214 22.542392,18.887087 23.57,18.75 C25.57,18.75 27.93,16.58 29.97,14.22 C31.13,12.85 32,11.62 34,9 L34.32,9.4 C34.6564428,9.78687911 34.7125355,10.3437993 34.46,10.79 L31.86,15.3 C30.86,17.12 31.55,18.79 33.54,18.79 C34.97,18.79 36.54,17.72 38.05,16.27 C38.0350921,17.0067842 38.3359635,17.714777 38.8767327,18.2154185 C39.4175019,18.7160599 40.1465476,18.9615592 40.88,18.89 C42.551788,18.8116322 44.0940312,17.9667191 45.06,16.6 C45.23981,16.611695 45.42019,16.611695 45.6,16.6 C46.7510626,16.5325106 47.8690818,16.18956 48.86,15.6 C48.73,17.37 50.02,18.72 52.19,18.72 C54.98,18.72 57.74,16.55 59.77,14.19 C60.95,12.82 61.87,11.59 63.83,8.93 L64.16,9.33 C64.4964428,9.71687911 64.5525355,10.2737993 64.3,10.72 L61.7,15.23 C60.7,17.05 61.39,18.72 63.38,18.72 C65.37,18.72 67.74,16.55 69.78,14.19 C71.17,12.59 72.4,10.86 73.27,9.71 C72.27,12.26 72.82,16.84 70.49,16.84 C69.9616514,16.7900027 69.5097077,16.4393567 69.33,15.94 L67.8,16.74 C68.1135514,17.9528102 69.2281067,18.7845679 70.48,18.74 C70.7065183,18.7515966 70.9334817,18.7515966 71.16,18.74 L71.23,18.74 C72.6042893,18.4939422 73.8981289,17.9173771 75,17.06 L74.16,18.53 L76.64,18.53 L80.38,12 C84.16,7.26 85.84,7.87 84.77,9.69 L81.58,15.24 C80.58,17.05 81.28,18.73 83.26,18.73 C84.69,18.73 86.26,17.66 87.78,16.2 C87.78,19.33 92.12,19.94 94.78,16.58 L95.32,16.58 C96.2435438,16.5714973 97.1555814,16.374116 98,16 L93.53,23.75 L96,23.75 L103.34,10.98 C106.08,7.25 107.8,8.62 107.16,9.73 L103.45,16.15 C103.277106,16.478638 102.936342,16.684409 102.565,16.684409 C102.193658,16.684409 101.852894,16.478638 101.68,16.15 L100.29,16.81 C100.604342,18.0265901 101.724426,18.8593661 102.98,18.81 L103.12,18.81 C106.68,18.74 109.02,16.61 111.03,14.28 C110.865343,13.8498691 110.516812,13.5160132 110.08,13.37 Z M54.18,9.92 C55.6,7.49 58.1,7.92 56.63,10.44 L56.28,11.05 C55.1,13.05 53.52,13.05 52.6,12.68 L54.18,9.92 Z M22.72,13.79 C21.23,16.13 19.72,17.24 18.72,17.24 C18.18,17.24 17.87,16.86 18.44,15.9 L21.86,9.9 C23.18,7.61 25.8,8.2 24.6,10.42 L22.72,13.79 Z M41.2,17.14 C40.9389444,17.162873 40.6805234,17.0733332 40.4895823,16.8938486 C40.2986412,16.714364 40.193303,16.4619702 40.2,16.2 C40.2367625,15.747757 40.3844538,15.3115524 40.63,14.93 L41.5,13.42 C41.6187954,14.4663721 42.1885778,15.4087045 43.06,16 C42.6711172,16.6685681 41.9722412,17.0969114 41.2,17.14 Z M43.77,14.76 C43.0963171,14.2260021 42.7235212,13.3983951 42.77,12.54 C42.77,10.79 44.47,7.94 45.86,7.94 C46.1227696,7.95180482 46.3685725,8.07316724 46.5377098,8.2746116 C46.706847,8.47605595 46.7838439,8.73915172 46.75,9 C46.7224887,9.51917062 46.5605288,10.0222802 46.28,10.46 L43.77,14.76 Z M94.19,13.53 L94.07,13.53 C93.6836822,13.5326274 93.3143853,13.6893099 93.0440417,13.9652857 C92.773698,14.2412615 92.6246624,14.6137102 92.63,15 C92.6333864,15.2932918 92.7163368,15.5801617 92.87,15.83 C91.71,17.83 88.87,17.43 90.37,14.89 L92.24,11.66 L93.42,9.66 C95.14,6.73 97.5,7.89 96.02,10.44 L94.19,13.53 Z" fill-rule="nonzero"></path>
                    </g>
                </g>
            </g>
        </g>
    </g>
</svg>