<?xml version="1.0" encoding="UTF-8"?>
<svg width="13px" height="13px" viewBox="0 0 13 13" version="1.1" xmlns="http://www.w3.org/2000/svg" xmlns:xlink="http://www.w3.org/1999/xlink">
    <!-- Generator: Sketch 57.1 (83088) - https://sketch.com -->
    <title>user</title>
    <desc>Created with Sketch.</desc>
    <g id="Pages" stroke="none" stroke-width="1" fill="none" fill-rule="evenodd">
        <g id="Index" transform="translate(-1402.000000, -273.000000)" fill="#000000" fill-rule="nonzero">
            <g id="log-in-form" transform="translate(1050.000000, 121.000000)">
                <g id="user" transform="translate(352.000000, 152.000000)">
                    <path d="M12.31,10.5 C12.1627831,10.0029484 11.857305,9.56755434 11.44,9.26 C10.594022,8.76052189 9.68631442,8.37390571 8.74,8.11 C8.51466254,8.03824273 8.29694403,7.9444563 8.09,7.83 C7.92663433,7.70332173 7.82192142,7.51556065 7.8,7.31 C7.79381041,7.20675935 7.79381041,7.10324065 7.8,7 C8.49836899,5.91439005 8.86979714,4.6508401 8.87,3.36 C8.97461046,2.69082207 8.75625955,2.01162422 8.28129026,1.52877162 C7.80632097,1.04591903 7.13080914,0.816418238 6.46,0.91 C5.78127364,0.798498565 5.09032118,1.02003365 4.60296651,1.50540719 C4.11561185,1.99078074 3.89126415,2.68082509 4,3.36 C4.02448979,4.69891896 4.45325071,5.99914516 5.23,7.09 L5.23,7.3 C5.20922294,7.50592226 5.10427472,7.69410529 4.94,7.82 C4.73314256,7.93463275 4.5154062,8.02842687 4.29,8.1 C3.34448268,8.35704817 2.43674715,8.7369523 1.59,9.23 C1.17160053,9.54935722 0.866664545,9.99449366 0.72,10.5 C0.561428873,11.0215336 0.487160396,11.5650438 0.5,12.11 L12.53,12.11 C12.5428396,11.5650438 12.4685711,11.0215336 12.31,10.5 L12.31,10.5 Z" id="Shape"></path>
                </g>
            </g>
        </g>
    </g>
</svg>