<?xml version="1.0" encoding="UTF-8"?>
<svg width="27px" height="15px" viewBox="0 0 27 15" version="1.1" xmlns="http://www.w3.org/2000/svg" xmlns:xlink="http://www.w3.org/1999/xlink">
    <!-- Generator: Sketch 57.1 (83088) - https://sketch.com -->
    <title>vk</title>
    <desc>Created with Sketch.</desc>
    <g id="Pages" stroke="none" stroke-width="1" fill="none" fill-rule="evenodd">
        <g id="Index" transform="translate(-1219.000000, -1675.000000)" fill="#FFFFFF">
            <g id="footer" transform="translate(0.000000, 1563.000000)">
                <g id="vk" transform="translate(1218.000000, 111.000000)">
                    <g id="Shape">
                        <path d="M27,14.47 L26.91,14.3 C26.1953182,13.1777764 25.3192513,12.16693 24.31,11.3 C23.73,10.7466667 23.3633333,10.3733333 23.21,10.18 C22.8859303,9.87683344 22.800422,9.39635809 23,9 C23.3430288,8.36546952 23.7519523,7.76884341 24.22,7.22 L25.1,6.06 C26.6666667,3.97333333 27.3333333,2.64 27.1,2.06 L27,1.94 C26.890864,1.82937333 26.7518708,1.75292705 26.6,1.72 C26.3130592,1.66042956 26.0169408,1.66042956 25.73,1.72 L21.81,1.72 C21.7216343,1.69574385 21.6283657,1.69574385 21.54,1.72 L21.24,1.72 C21.1823324,1.7577078 21.1315906,1.8050668 21.09,1.86 C21.0315787,1.93253821 20.9843855,2.0134409 20.95,2.1 C20.5419759,3.15569481 20.0538888,4.178672 19.49,5.16 C19.1566667,5.72 18.8466667,6.20666667 18.56,6.62 C18.3487874,6.94236105 18.1113137,7.24672877 17.85,7.53 C17.6880139,7.69878153 17.5142433,7.85584345 17.33,8 C17.1766667,8.12 17.06,8.17 16.98,8.15 L16.75,8.1 C16.6202337,8.01821429 16.5135236,7.90461971 16.44,7.77 C16.3540256,7.60487987 16.2997557,7.42511067 16.28,7.24 L16.28,2.6 C16.3004534,2.39383939 16.3004534,2.18616061 16.28,1.98 C16.2494921,1.82867361 16.2025471,1.68113208 16.14,1.54 C16.0821687,1.40422633 15.9845442,1.28916882 15.86,1.21 C15.7171252,1.1261034 15.5618707,1.06535165 15.4,1.03 C14.7926043,0.957839831 14.1794346,0.947787867 13.57,1 C12.4755913,0.909229945 11.373827,1.0211014 10.32,1.33 C10.1231764,1.43390791 9.94695868,1.57284882 9.8,1.74 C9.63333333,1.94 9.61,2.05 9.73,2.07 C10.1805412,2.1017125 10.5990258,2.31456242 10.89,2.66 L10.97,2.82 C11.0597592,3.02110572 11.1236037,3.23280072 11.16,3.45 C11.2265391,3.77961022 11.2666665,4.11400511 11.28,4.45 C11.3255567,5.01575105 11.3255567,5.58424895 11.28,6.15 C11.2333333,6.62333333 11.19,6.99 11.15,7.25 C11.1226152,7.47118933 11.0619287,7.68696363 10.97,7.89 C10.9230461,7.99327383 10.869606,8.09347393 10.81,8.19 L10.74,8.26 C10.6222124,8.30655373 10.4966534,8.33030815 10.37,8.33 C10.2012915,8.31338882 10.0412554,8.24728694 9.91,8.14 C9.70365129,7.98914938 9.51570149,7.81462455 9.35,7.62 C9.10507253,7.32846625 8.88434022,7.01743437 8.69,6.69 C8.44333333,6.29 8.19,5.81666667 7.93,5.27 L7.71,4.88 C7.57666667,4.62666667 7.39,4.25666667 7.15,3.77 C6.91,3.28333333 6.70333333,2.80666667 6.53,2.34 C6.46860758,2.16249194 6.35321786,2.00863898 6.2,1.9 L6.13,1.9 C6.06490535,1.83617181 5.99077923,1.7822619 5.91,1.74 C5.81036639,1.69847626 5.70637987,1.66828662 5.6,1.65 L1.87,1.68 C1.58810047,1.65375853 1.30828877,1.7482404 1.1,1.94 L1,2 C0.981370891,2.07215023 0.981370891,2.14784977 1,2.22 C1.0046754,2.34708139 1.031758,2.47233842 1.08,2.59 C1.62666667,3.88333333 2.22,5.12333333 2.86,6.31 C3.5,7.49666667 4.05333333,8.45333333 4.52,9.18 C4.99333333,9.90666667 5.48666667,10.5933333 6,11.24 C6.51333333,11.8866667 6.84666667,12.3 7,12.48 L7.37,12.89 L7.71,13.22 C8.0223289,13.5058618 8.35669704,13.766669 8.71,14 C9.16107532,14.3235871 9.62834796,14.6239767 10.11,14.9 C10.6736562,15.2150695 11.2751687,15.4570187 11.9,15.62 C12.5502068,15.8019179 13.2257966,15.8762328 13.9,15.84 L15.47,15.84 C15.738992,15.8331844 15.995752,15.7262011 16.19,15.54 L16.24,15.47 C16.2856809,15.3921526 16.3193914,15.3078763 16.34,15.22 C16.3566088,15.0972258 16.3566088,14.9727742 16.34,14.85 C16.3285861,14.4976781 16.3587951,14.1452403 16.43,13.8 C16.474287,13.5540415 16.5516557,13.3152076 16.66,13.09 C16.7371485,12.9435515 16.8347994,12.8088607 16.95,12.69 C17.0177767,12.61375 17.0950773,12.5465321 17.18,12.49 L17.29,12.49 C17.565575,12.4294512 17.8533217,12.5079275 18.06,12.7 C18.3690603,12.9270562 18.6479675,13.1925222 18.89,13.49 C19.15,13.8033333 19.46,14.1533333 19.82,14.54 C20.1223736,14.8637773 20.4574981,15.1553357 20.82,15.41 L21.09,15.57 C21.3141762,15.6973083 21.552458,15.7979908 21.8,15.87 C22.0433527,15.9571589 22.3048209,15.9812415 22.56,15.94 L26.04,15.89 C26.3169653,15.9045297 26.5928758,15.8458987 26.84,15.72 C26.9964171,15.6446007 27.1180643,15.51222 27.18,15.35 C27.2136715,15.1985152 27.2136715,15.0414848 27.18,14.89 C27.1599159,14.7667077 27.1263825,14.6459872 27.08,14.53 L27,14.47 Z" fill-rule="nonzero"></path>
                    </g>
                </g>
            </g>
        </g>
    </g>
</svg>